<svg id="create-list" xmlns="http://www.w3.org/2000/svg" width="629.334" height="585.01" viewBox="0 0 629.334 585.01">
  <path id="Tracé_53" data-name="Tracé 53" d="M475.306,647.767l-.007-.061a180.107,180.107,0,0,0-9.069-48.877l0-.026a10.244,10.244,0,0,1,.26-4.875,9.625,9.625,0,0,1,10.731-6.522,20.654,20.654,0,0,0,14.147-2.415,10.064,10.064,0,0,1,8.909-.59,9.328,9.328,0,0,1,5.514,6.316c.057.225.108.452.151.683a143.624,143.624,0,0,0,9.071,48.924l0,.02a10.26,10.26,0,0,1-2.624,8.954,9.529,9.529,0,0,1-7.631,2.8,33.85,33.85,0,0,0-16,3.157,9.245,9.245,0,0,1-6.3.442,10.179,10.179,0,0,1-7.15-7.935Z" transform="translate(-71.908 -71.049)" fill="#d9dbf1"/>
  <path id="Tracé_54" data-name="Tracé 54" d="M291.366,395.479V613.9H444.387V395.479a7.343,7.343,0,0,0-5.175-7.028,6.762,6.762,0,0,0-2.194-.341H298.756a7.376,7.376,0,0,0-7.39,7.362v.007Zm59.717,75.051a16.336,16.336,0,0,1,32.67,0v25.344a16.335,16.335,0,0,1-32.67,0V470.53Z" transform="translate(-50.643 -47.247)" fill="#c2fbff"/>
  <path id="Tracé_55" data-name="Tracé 55" d="M290.833,637.246v21.063a4.145,4.145,0,0,0,4.11,4.132H440.681a4.131,4.131,0,0,0,4.11-4.132V637.246H290.833Z" transform="translate(-50.578 -77.576)" fill="#aadade"/>
  <path id="Tracé_56" data-name="Tracé 56" d="M17.277,19.146V417.959a19.183,19.183,0,0,0,19.168,19.168h591a19.182,19.182,0,0,0,19.167-19.168V19.146A19.192,19.192,0,0,0,627.443,0h-591A19.192,19.192,0,0,0,17.277,19.146Z" transform="translate(-17.277)" fill="#c2fbff"/>
  <g id="Tracé_127" data-name="Tracé 127" transform="translate(140.364 55.103)" fill="#d9dbf1">
    <path d="M 184.0917816162109 367.6835632324219 C 171.635009765625 367.6835632324219 159.1861419677734 366.4285888671875 147.0910949707031 363.95361328125 C 135.3036956787109 361.5415649414062 123.7091903686523 357.9424133300781 112.6297378540039 353.2561950683594 C 101.7512817382812 348.6549987792969 91.25896453857422 342.9599609375 81.44423675537109 336.3292846679688 C 71.72260284423828 329.761474609375 62.58082580566406 322.2187805175781 54.27278137207031 313.9107666015625 C 45.96478271484375 305.6027221679688 38.42210006713867 296.4609680175781 31.85428237915039 286.7393188476562 C 25.22360038757324 276.9245910644531 19.52855491638184 266.4322814941406 14.92737293243408 255.5538330078125 C 10.24114513397217 244.474365234375 6.642008781433105 232.8798675537109 4.229963302612305 221.0924682617188 C 1.754963397979736 208.9974212646484 0.5000088810920715 196.5485534667969 0.5000088810920715 184.0917816162109 C 0.5000088810920715 171.635009765625 1.754963397979736 159.1861419677734 4.229963302612305 147.0910949707031 C 6.642008781433105 135.3036956787109 10.24114513397217 123.7091903686523 14.92737293243408 112.6297378540039 C 19.52855491638184 101.7512817382812 25.22360038757324 91.25896453857422 31.85428237915039 81.44423675537109 C 38.42210006713867 71.72260284423828 45.96478271484375 62.58082580566406 54.27278137207031 54.27278137207031 C 62.58082580566406 45.96478271484375 71.72260284423828 38.42210006713867 81.44423675537109 31.85428237915039 C 91.25896453857422 25.22360038757324 101.7512817382812 19.52855491638184 112.6297378540039 14.92737293243408 C 123.7091903686523 10.24114513397217 135.3036956787109 6.642008781433105 147.0910949707031 4.229963302612305 C 159.1861419677734 1.754963397979736 171.635009765625 0.5000088810920715 184.0917816162109 0.5000088810920715 C 196.5485534667969 0.5000088810920715 208.9974212646484 1.754963397979736 221.0924682617188 4.229963302612305 C 232.8798675537109 6.642008781433105 244.474365234375 10.24114513397217 255.5538330078125 14.92737293243408 C 266.4322814941406 19.52855491638184 276.9245910644531 25.22360038757324 286.7393188476562 31.85428237915039 C 296.4609680175781 38.42210006713867 305.6027221679688 45.96478271484375 313.9107666015625 54.27278137207031 C 322.2187805175781 62.58082580566406 329.761474609375 71.72260284423828 336.3292846679688 81.44423675537109 C 342.9599609375 91.25896453857422 348.6549987792969 101.7512817382812 353.2561950683594 112.6297378540039 C 357.9424133300781 123.7091903686523 361.5415649414062 135.3036956787109 363.95361328125 147.0910949707031 C 366.4285888671875 159.1861419677734 367.6835632324219 171.635009765625 367.6835632324219 184.0917816162109 C 367.6835632324219 196.5485534667969 366.4285888671875 208.9974212646484 363.95361328125 221.0924682617188 C 361.5415649414062 232.8798675537109 357.9424133300781 244.474365234375 353.2561950683594 255.5538330078125 C 348.6549987792969 266.4322814941406 342.9599609375 276.9245910644531 336.3292846679688 286.7393188476562 C 329.761474609375 296.4609680175781 322.2187805175781 305.6027221679688 313.9107666015625 313.9107666015625 C 305.6027221679688 322.2187805175781 296.4609680175781 329.761474609375 286.7393188476562 336.3292846679688 C 276.9245910644531 342.9599609375 266.4322814941406 348.6549987792969 255.5538330078125 353.2561950683594 C 244.474365234375 357.9424133300781 232.8798675537109 361.5415649414062 221.0924682617188 363.95361328125 C 208.9974212646484 366.4285888671875 196.5485534667969 367.6835632324219 184.0917816162109 367.6835632324219 Z" stroke="none"/>
    <path d="M 184.0917816162109 1 C 171.6685943603516 1 159.2534637451172 2.251495361328125 147.1913299560547 4.71978759765625 C 135.436279296875 7.125244140625 123.8735961914062 10.71450805664062 112.8245086669922 15.38787841796875 C 101.9757690429688 19.97647094726562 91.5120849609375 25.65597534179688 81.72409057617188 32.26858520507812 C 72.02886962890625 38.818603515625 62.911865234375 46.3408203125 54.62631225585938 54.62631225585938 C 46.3408203125 62.911865234375 38.818603515625 72.02886962890625 32.26858520507812 81.72409057617188 C 25.65597534179688 91.5120849609375 19.97647094726562 101.9757690429688 15.38787841796875 112.8245086669922 C 10.71450805664062 123.8735961914062 7.125244140625 135.436279296875 4.71978759765625 147.1913299560547 C 2.251495361328125 159.2534637451172 1 171.6685943603516 1 184.0917816162109 C 1 196.5149688720703 2.251495361328125 208.9300994873047 4.71978759765625 220.9922332763672 C 7.125244140625 232.7472839355469 10.71450805664062 244.3099670410156 15.38787841796875 255.3590545654297 C 19.97647094726562 266.207763671875 25.65597534179688 276.6714477539062 32.26858520507812 286.45947265625 C 38.818603515625 296.1546936035156 46.3408203125 305.2716979980469 54.62631225585938 313.5572509765625 C 62.911865234375 321.8427429199219 72.02886962890625 329.3649597167969 81.72409057617188 335.9149780273438 C 91.5120849609375 342.527587890625 101.9757690429688 348.2070922851562 112.8245086669922 352.7956848144531 C 123.8735961914062 357.4690551757812 135.436279296875 361.0583190917969 147.1913299560547 363.4637756347656 C 159.2534637451172 365.9320678710938 171.6685943603516 367.1835632324219 184.0917816162109 367.1835632324219 C 196.5149688720703 367.1835632324219 208.9300994873047 365.9320678710938 220.9922332763672 363.4637756347656 C 232.7472839355469 361.0583190917969 244.3099670410156 357.4690551757812 255.3590545654297 352.7956848144531 C 266.207763671875 348.2070922851562 276.6714477539062 342.527587890625 286.45947265625 335.9149780273438 C 296.1546936035156 329.3649597167969 305.2716979980469 321.8427429199219 313.5572509765625 313.5572509765625 C 321.8427429199219 305.2716979980469 329.3649597167969 296.1546936035156 335.9149780273438 286.45947265625 C 342.527587890625 276.6714477539062 348.2070922851562 266.207763671875 352.7956848144531 255.3590545654297 C 357.4690551757812 244.3099670410156 361.0583190917969 232.7472839355469 363.4637756347656 220.9922332763672 C 365.9320678710938 208.9300994873047 367.1835632324219 196.5149688720703 367.1835632324219 184.0917816162109 C 367.1835632324219 171.6685943603516 365.9320678710938 159.2534637451172 363.4637756347656 147.1913299560547 C 361.0583190917969 135.436279296875 357.4690551757812 123.8735961914062 352.7956848144531 112.8245086669922 C 348.2070922851562 101.9757690429688 342.527587890625 91.5120849609375 335.9149780273438 81.72409057617188 C 329.3649597167969 72.02886962890625 321.8427429199219 62.911865234375 313.5572509765625 54.62631225585938 C 305.2716979980469 46.3408203125 296.1546936035156 38.818603515625 286.45947265625 32.26858520507812 C 276.6714477539062 25.65597534179688 266.207763671875 19.97647094726562 255.3590545654297 15.38787841796875 C 244.3099670410156 10.71450805664062 232.7472839355469 7.125244140625 220.9922332763672 4.71978759765625 C 208.9300994873047 2.251495361328125 196.5149688720703 1 184.0917816162109 1 M 184.0917816162109 0 C 285.7628784179688 0 368.1835632324219 82.42068481445312 368.1835632324219 184.0917816162109 C 368.1835632324219 285.7628784179688 285.7628784179688 368.1835632324219 184.0917816162109 368.1835632324219 C 82.42068481445312 368.1835632324219 0 285.7628784179688 0 184.0917816162109 C 0 82.42068481445312 82.42068481445312 0 184.0917816162109 0 Z" stroke="none" fill="#707070"/>
  </g>
  <path id="Tracé_57" data-name="Tracé 57" d="M624.433,15.762H43.295A10.266,10.266,0,0,0,33.051,26.027v388.93A10.262,10.262,0,0,0,43.295,425.2H624.433a10.262,10.262,0,0,0,10.244-10.244V26.027a10.266,10.266,0,0,0-10.244-10.265ZM477.838,292.08a10.179,10.179,0,0,1-9.106,5.582l-.061,0q-8.357-1.164-16.775-1.535a10.127,10.127,0,0,1,2.272,2.247,9.529,9.529,0,0,1,1.365,8.015,33.851,33.851,0,0,0,.185,16.308,9.245,9.245,0,0,1-.714,6.275,10.179,10.179,0,0,1-9.106,5.582l-.061,0a180.112,180.112,0,0,0-40.159-1.07c-.053.338-.119.676-.206,1.013a33.85,33.85,0,0,0,.185,16.308,9.244,9.244,0,0,1-.714,6.275,10.179,10.179,0,0,1-9.106,5.582l-.061,0a180.1,180.1,0,0,0-41.239-.971,38.4,38.4,0,0,0,1.059,10.2,9.245,9.245,0,0,1-.714,6.275,10.179,10.179,0,0,1-9.106,5.582l-.061,0a180.111,180.111,0,0,0-49.711,0h-.027a10.246,10.246,0,0,1-4.746-1.145,9.626,9.626,0,0,1-4.455-11.741,24.887,24.887,0,0,0,1.106-4.336,180.106,180.106,0,0,0-45.453.535H242.4a10.245,10.245,0,0,1-4.746-1.145,9.626,9.626,0,0,1-4.455-11.741,20.653,20.653,0,0,0,.206-14.35,10.062,10.062,0,0,1,0-6.749,180.1,180.1,0,0,0-34.013,1.489h-.027a10.245,10.245,0,0,1-4.746-1.145,9.626,9.626,0,0,1-4.455-11.741,20.653,20.653,0,0,0,.206-14.35,10.065,10.065,0,0,1,1.046-8.867,9.329,9.329,0,0,1,7.216-4.269c.232-.015.464-.024.7-.024a145.04,145.04,0,0,0,17.451,1.971A9.66,9.66,0,0,1,213,284.772a20.653,20.653,0,0,0,.206-14.35,10.065,10.065,0,0,1,1.045-8.867c.074-.113.16-.214.238-.323q-6.246.431-12.463,1.3H202a10.245,10.245,0,0,1-4.746-1.145,9.626,9.626,0,0,1-4.455-11.741,20.653,20.653,0,0,0,.206-14.35,10.065,10.065,0,0,1,1.046-8.867,9.329,9.329,0,0,1,7.216-4.269c.232-.015.464-.024.7-.024a144.739,144.739,0,0,0,21,2.114,9.8,9.8,0,0,1-1.186-8.857,20.653,20.653,0,0,0,.206-14.35,10.065,10.065,0,0,1,1.046-8.867,9.329,9.329,0,0,1,7.216-4.269c.232-.015.464-.024.7-.024a145.029,145.029,0,0,0,17.758,1.988,9.817,9.817,0,0,1-.577-7.852,20.654,20.654,0,0,0,.206-14.35,10.065,10.065,0,0,1,1.045-8.867,9.329,9.329,0,0,1,7.216-4.269c.232-.015.464-.024.7-.024a144.751,144.751,0,0,0,20.913,2.111,9.826,9.826,0,0,1-.218-7.1,20.653,20.653,0,0,0,.206-14.35,10.065,10.065,0,0,1,1.046-8.867,9.329,9.329,0,0,1,7.216-4.269c.232-.015.464-.024.7-.024a143.625,143.625,0,0,0,49.757.006h.021a9.542,9.542,0,0,0,3.851,0h.021a143.625,143.625,0,0,0,49.757-.006c.235,0,.467.008.7.024a9.329,9.329,0,0,1,7.216,4.269,10.065,10.065,0,0,1,1.046,8.867,20.654,20.654,0,0,0,.206,14.35,9.826,9.826,0,0,1-.218,7.1,144.753,144.753,0,0,0,20.913-2.111c.235,0,.467.008.7.024a9.329,9.329,0,0,1,7.216,4.269,10.065,10.065,0,0,1,1.046,8.867,20.653,20.653,0,0,0,.206,14.35,9.817,9.817,0,0,1-.577,7.852,145.026,145.026,0,0,0,17.758-1.988c.235,0,.467.008.7.024a9.329,9.329,0,0,1,7.216,4.269,10.065,10.065,0,0,1,1.046,8.867,20.653,20.653,0,0,0,.206,14.35,9.8,9.8,0,0,1-1.2,8.875,10.118,10.118,0,0,1,2.059,2.087,9.529,9.529,0,0,1,1.365,8.015,33.851,33.851,0,0,0,.185,16.308,9.244,9.244,0,0,1-.714,6.275,10.32,10.32,0,0,1-1.284,1.936q6.167-.542,12.3-1.617h.021A10.26,10.26,0,0,1,477,261.482a9.529,9.529,0,0,1,1.365,8.015,33.85,33.85,0,0,0,.185,16.308,9.244,9.244,0,0,1-.714,6.275Z" transform="translate(-19.197 -1.919)" fill="#3f3d56"/>
  <path id="Tracé_58" data-name="Tracé 58" d="M609.277,76.166H65.509a2.163,2.163,0,0,1,0-4.325H609.277a2.163,2.163,0,0,1,0,4.325Z" transform="translate(-22.891 -8.746)" fill="#e6e6e6"/>
  <path id="Tracé_59" data-name="Tracé 59" d="M374.594,417.34l-.061,0a180.111,180.111,0,0,0-49.711,0H324.8a10.245,10.245,0,0,1-4.746-1.145A9.626,9.626,0,0,1,315.6,404.45a20.653,20.653,0,0,0,.206-14.35,10.065,10.065,0,0,1,1.046-8.867,9.329,9.329,0,0,1,7.216-4.269c.232-.015.464-.024.7-.024a143.624,143.624,0,0,0,49.757.006h.021a10.26,10.26,0,0,1,8.326,4.214,9.529,9.529,0,0,1,1.365,8.015,33.85,33.85,0,0,0,.185,16.308,9.245,9.245,0,0,1-.714,6.275,10.179,10.179,0,0,1-9.106,5.582Z" transform="translate(-53.522 -45.887)" fill="#efffd4"/>
  <path id="Tracé_60" data-name="Tracé 60" d="M429.435,323.371l-13.267-10.979c-9.949,5.215-25.087,26.033-25.087,26.033l-34.923,25.117a7.6,7.6,0,1,0,7.13,11.056l47.451-25.074Z" transform="translate(-57.649 -38.029)" fill="#ffd4d4"/>
  <path id="Tracé_61" data-name="Tracé 61" d="M454.781,276.718h0a18.168,18.168,0,0,1-.281,27.962l-8.436,6.858s-21.044,30.294-32,33.809l-28.121,14.691-12.68-12.713,25.486-20.77s11.722-11.088,12.9-19.2c.719-4.971,9.131-18.511,17.563-28.553a18.122,18.122,0,0,1,25.542-2.105l.029.025Z" transform="translate(-60.613 -33.16)" fill="#3f3d56"/>
  <path id="Tracé_62" data-name="Tracé 62" d="M432.585,645.264H420.6l-5.7-46.232h17.69Z" transform="translate(-65.681 -72.924)" fill="#ffd4d4"/>
  <path id="Tracé_63" data-name="Tracé 63" d="M430.408,663.147H393.55v-.466A14.347,14.347,0,0,1,407.9,648.333h0l6.733-5.108,12.561,5.109h3.217Z" transform="translate(-63.083 -78.304)" fill="#2f2e41"/>
  <path id="Tracé_64" data-name="Tracé 64" d="M532.216,576.807l-5.676,10.556-43.42-16.87,8.378-15.58Z" transform="translate(-73.986 -67.553)" fill="#ffd4d4"/>
  <path id="Tracé_65" data-name="Tracé 65" d="M548.265,585.188,530.81,617.651l-.411-.221A14.347,14.347,0,0,1,524.557,598h0l-1.311-8.349,10.448-8.645,1.524-2.834Z" transform="translate(-78.822 -70.384)" fill="#2f2e41"/>
  <path id="Tracé_66" data-name="Tracé 66" d="M407.769,410.61,397.19,495.239l5.289,28.373,95.208,41.711,5.289-17.19c-24.336-14.892-50.352-37.429-66.744-39.086,0,0-1.36-15.018,10.384-24.287,2.369-1.87,1.851-4.4,2.809-6.693.659-1.577,3.28-3.219,3.951-4.838.87-2.1-.207-4.18.668-6.311.492-1.2,2.356-1.273,2.845-2.472.834-2.045.288-5.212,1.1-7.232,1.736-4.317,3.4-8.539,4.929-12.5,4.744-12.32,8.082-22.081,7.66-24.189-1.322-6.612-62.811-9.918-62.811-9.918Z" transform="translate(-63.526 -49.986)" fill="#2f2e41"/>
  <path id="Tracé_67" data-name="Tracé 67" d="M406.393,506.691l-5.534,35.739,13.968,72.936h18.513c6.651-24.507,6.994-56.717.661-83.968l-27.608-24.708Z" transform="translate(-63.972 -61.682)" fill="#2f2e41"/>
  <path id="Tracé_68" data-name="Tracé 68" d="M419.119,289.431l8.534-14.871,9.163-7.351,17.19-2.645,4.776,3.672h0a122.1,122.1,0,0,1,17.9,89.019l-1.342,7.267-.852,4.613.369,5.513-2.869,8.027.395,5.877.211,3.139.212,3.15.3,4.4c.529,2.51-2.133,2.179-1.756,4.391.661,3.885,3.626,9.642-.878,9.661l-46.548-9.661c-11.825.049-22.835-14.052-11.417-25.47l6.62-88.731Z" transform="translate(-64.805 -32.207)" fill="#3f3d56"/>
  <circle id="Ellipse_56" data-name="Ellipse 56" cx="22.603" cy="22.603" r="22.603" transform="translate(353.499 183.009)" fill="#ffd4d4"/>
  <path id="Tracé_69" data-name="Tracé 69" d="M442.328,252.312a58.089,58.089,0,0,0,9.881-.691c3.239-.659,10.486-5.969,12.506-9.165h0c1.5-2.374,2.461-6.082,3-8.774a25.966,25.966,0,0,0-4.541-20.613,8.2,8.2,0,0,0-3.313-2.828c-.119-.046-.241-.088-.364-.123A10.121,10.121,0,0,1,454.462,207a8.34,8.34,0,0,0-.837-.861,12.468,12.468,0,0,0-5.2-2.612c-3.092-.828-7.567-.006-13.3,2.444-2.88,1.231-6.03.785-8.454.26a.793.793,0,0,0-.747.256,5.6,5.6,0,0,1-3.8,1.516c-.866.038-1.775,1.237-2.873,2.8-.249.355-.54.769-.75,1.021l-.028-.484-.49.54a6.792,6.792,0,0,0,3.067,11.066,13.244,13.244,0,0,0,2.664.425c.545.049,1.109.1,1.65.194a10.241,10.241,0,0,1,7.61,6.645,2.678,2.678,0,0,0,4.042,1.3,4.425,4.425,0,0,1,4.032-.734,2.938,2.938,0,0,1,1.3,1.473,3.828,3.828,0,0,0,1.453,1.695c2.2,1.132,2.346,6.145,1.558,10.325-.76,4.029-2.262,6.943-3.653,7.087-1.071.111-1.193.187-1.271.376l-.069.17.12.159A4.373,4.373,0,0,0,442.328,252.312Z" transform="translate(-65.842 -24.739)" fill="#2f2e41"/>
  <path id="Tracé_70" data-name="Tracé 70" d="M385.594,238.34l-.061,0a180.112,180.112,0,0,0-49.711,0H335.8a10.245,10.245,0,0,1-4.745-1.145A9.625,9.625,0,0,1,326.6,225.45a20.653,20.653,0,0,0,.206-14.35,10.065,10.065,0,0,1,1.046-8.867,9.329,9.329,0,0,1,7.216-4.269c.232-.015.464-.024.7-.024a143.623,143.623,0,0,0,49.757.006h.021a10.261,10.261,0,0,1,8.326,4.214,9.529,9.529,0,0,1,1.365,8.015,33.849,33.849,0,0,0,.185,16.308,9.245,9.245,0,0,1-.714,6.275,10.179,10.179,0,0,1-9.106,5.582Z" transform="translate(-54.861 -24.096)" fill="#efffd4"/>
  <path id="Tracé_71" data-name="Tracé 71" d="M409.109,294.238l9.353-14.459c-6.341-9.271-28.786-21.873-28.786-21.873l-29.026-31.749a7.6,7.6,0,1,0-10.147,8.373l30.448,44.2,28.159,15.512Z" transform="translate(-57.239 -26.758)" fill="#ffd4d4"/>
  <path id="Tracé_72" data-name="Tracé 72" d="M455.053,313.848h0a18.168,18.168,0,0,1-27.8,2.988l-7.8-7.577S386.768,292.193,382,281.725l-21.416-30.376,14.359-12.954L399.9,261.084s11.491,13.288,19.689,13.505c5.021.133,19.451,6.906,30.41,14.106a18.122,18.122,0,0,1,5.076,25.121l-.021.032Z" transform="translate(-59.069 -29.021)" fill="#3f3d56"/>
  <path id="Tracé_73" data-name="Tracé 73" d="M211.98,660.159l-.061,0a180.1,180.1,0,0,0-49.711,0h-.027a10.246,10.246,0,0,1-4.746-1.145,9.626,9.626,0,0,1-4.455-11.741,20.653,20.653,0,0,0,.206-14.35,10.065,10.065,0,0,1,1.046-8.867,9.329,9.329,0,0,1,7.216-4.269c.232-.015.464-.024.7-.024a143.628,143.628,0,0,0,49.757.007h.021a10.26,10.26,0,0,1,8.326,4.214,9.529,9.529,0,0,1,1.365,8.015A33.849,33.849,0,0,0,221.8,648.3a9.244,9.244,0,0,1-.714,6.275,10.179,10.179,0,0,1-9.106,5.582Z" transform="translate(-33.726 -75.447)" fill="#ffd4d4"/>
  <path id="Tracé_74" data-name="Tracé 74" d="M227.98,618.159l-.061,0a180.116,180.116,0,0,0-49.711,0h-.027a10.243,10.243,0,0,1-4.746-1.145,9.626,9.626,0,0,1-4.455-11.741,20.653,20.653,0,0,0,.206-14.35,10.065,10.065,0,0,1,1.046-8.867,9.329,9.329,0,0,1,7.216-4.269c.232-.015.464-.024.7-.024a143.625,143.625,0,0,0,49.757.006h.021a10.26,10.26,0,0,1,8.326,4.214,9.529,9.529,0,0,1,1.365,8.015A33.85,33.85,0,0,0,237.8,606.3a9.244,9.244,0,0,1-.714,6.275,10.179,10.179,0,0,1-9.106,5.582Z" transform="translate(-35.674 -70.334)" fill="#d9dbf1"/>
  <path id="Tracé_75" data-name="Tracé 75" d="M95.981,628.885l.038-.048a180.114,180.114,0,0,0,27.854-41.174l.015-.022a10.245,10.245,0,0,1,3.607-3.289,9.625,9.625,0,0,1,12.221,2.889,20.653,20.653,0,0,0,11.771,8.211,10.065,10.065,0,0,1,6.759,5.834,9.329,9.329,0,0,1-.507,8.369q-.175.3-.372.592a143.626,143.626,0,0,0-27.886,41.209l-.012.017a10.26,10.26,0,0,1-8.155,4.535,9.529,9.529,0,0,1-7.4-3.36,33.85,33.85,0,0,0-13.611-8.984,9.244,9.244,0,0,1-4.8-4.108,10.179,10.179,0,0,1,.479-10.67Z" transform="translate(-26.643 -71.005)" fill="#efffd4"/>
  <g id="Groupe_64" data-name="Groupe 64" transform="translate(118.142 32.16)">
    <ellipse id="Ellipse_57" data-name="Ellipse 57" cx="7.427" cy="7.593" rx="7.427" ry="7.593" fill="#3f3d56"/>
    <ellipse id="Ellipse_58" data-name="Ellipse 58" cx="7.427" cy="7.593" rx="7.427" ry="7.593" transform="translate(25.658)" fill="#3f3d56"/>
    <ellipse id="Ellipse_59" data-name="Ellipse 59" cx="7.427" cy="7.593" rx="7.427" ry="7.593" transform="translate(51.315)" fill="#3f3d56"/>
    <path id="Tracé_77" data-name="Tracé 77" d="M251.174,50.432a.875.875,0,0,1-.628-.264l-5.011-5.123a.878.878,0,0,1,0-1.228l5.011-5.122a.878.878,0,1,1,1.256,1.228l-4.411,4.508L251.8,48.94a.878.878,0,0,1-.628,1.492Z" transform="translate(-163.175 -36.839)" fill="#3f3d56"/>
    <path id="Tracé_78" data-name="Tracé 78" d="M261.457,50.432a.878.878,0,0,1-.628-1.492l4.41-4.509-4.41-4.508a.878.878,0,0,1,1.256-1.228l5.011,5.122a.878.878,0,0,1,0,1.228l-5.011,5.123a.875.875,0,0,1-.628.264Z" transform="translate(-165.037 -36.839)" fill="#3f3d56"/>
    <path id="Tracé_79" data-name="Tracé 79" d="M558.531,37.619h-9.318a1.923,1.923,0,0,0-1.923,1.923v9.327a1.923,1.923,0,0,0,1.923,1.923h9.318a1.93,1.93,0,0,0,1.932-1.923V39.542A1.93,1.93,0,0,0,558.531,37.619Z" transform="translate(-199.94 -36.74)" fill="#3f3d56"/>
    <path id="Tracé_80" data-name="Tracé 80" d="M532.531,37.619h-9.318a1.923,1.923,0,0,0-1.923,1.923v9.327a1.923,1.923,0,0,0,1.923,1.923h9.318a1.93,1.93,0,0,0,1.932-1.923V39.542A1.93,1.93,0,0,0,532.531,37.619Z" transform="translate(-196.775 -36.74)" fill="#3f3d56"/>
    <path id="Tracé_81" data-name="Tracé 81" d="M583.031,38.119h-9.318a1.923,1.923,0,0,0-1.923,1.923v9.327a1.923,1.923,0,0,0,1.923,1.923h9.318a1.93,1.93,0,0,0,1.932-1.923V40.042A1.93,1.93,0,0,0,583.031,38.119Z" transform="translate(-202.923 -36.801)" fill="#3f3d56"/>
    <path id="Tracé_82" data-name="Tracé 82" d="M414.018,42.159H339.532a2.345,2.345,0,1,0,0,4.69h74.486a2.345,2.345,0,0,0,0-4.69Z" transform="translate(-174.363 -37.293)" fill="#3f3d56"/>
  </g>
</svg>
