<svg id="first-list" xmlns="http://www.w3.org/2000/svg" width="450" height="548.516" viewBox="0 0 450 548.516">
  <path id="Tracé_83" data-name="Tracé 83" d="M267.572,65.026h29.75a9.643,9.643,0,0,0,9.631-9.631V9.631A9.643,9.643,0,0,0,297.322,0h-29.75a9.643,9.643,0,0,0-9.631,9.631V55.394a9.643,9.643,0,0,0,9.631,9.631Z" transform="translate(-123.433)" fill="#efffd4"/>
  <path id="Tracé_84" data-name="Tracé 84" d="M309.442,65.026h29.751a9.643,9.643,0,0,0,9.631-9.631V9.631A9.643,9.643,0,0,0,339.193,0H309.442a9.643,9.643,0,0,0-9.631,9.631V55.394a9.643,9.643,0,0,0,9.631,9.631Z" transform="translate(-230.424)" fill="#efffd4"/>
  <path id="Tracé_85" data-name="Tracé 85" d="M354.058,65.026h29.75a9.643,9.643,0,0,0,9.631-9.631V9.631A9.643,9.643,0,0,0,383.808,0h-29.75a9.643,9.643,0,0,0-9.631,9.631V55.394a9.643,9.643,0,0,0,9.631,9.631Z" transform="translate(-344.426)" fill="#efffd4"/>
  <path id="uuid-4d2d9b01-4014-4a15-9fb7-c70aeb2aff54" d="M160.008,139.184c-5.155-5.246-12.041-6.839-15.379-3.558s-1.865,10.193,3.293,15.441a18.408,18.408,0,0,0,7.322,4.687l22.124,21.953,10.081-10.6-22.88-20.516a18.409,18.409,0,0,0-4.56-7.4Z" transform="translate(175.077 74.358)" fill="#ffd4d4"/>
  <path id="Tracé_86" data-name="Tracé 86" d="M169.7,126.187l-23.2,51.459L109.458,157.6,96.2,164.632s30.28,50.623,51.013,44.86,57.549-58.015,50.915-74.142-28.435-9.163-28.435-9.163Z" transform="translate(236.144 69.234)" fill="#3f3d56"/>
  <path id="Tracé_90" data-name="Tracé 90" d="M251.891,83.947,230.342,94.154c8.838-12.334,16.454-31.6,20.531-46.927,6.9,14.279,18.032,31.75,29.047,42.186l-22.775-5.859c14.034,68.778,66.817,118.154,127.262,118.154l.856,2.484c-63.136,0-119.044-48.691-133.373-120.246Z" transform="translate(-158.822 26.223)" fill="#c2fbff"/>
  <g id="Groupe_73" data-name="Groupe 73" transform="translate(357.256 473.136)">
    <path id="Tracé_102" data-name="Tracé 102" d="M133.41,369.461l-16.915,0L108.45,304.22l24.963,0Z" transform="translate(-74.656 -304.22)" fill="#ffd4d4"/>
    <path id="Tracé_103" data-name="Tracé 103" d="M106.741,352.736h0a14.522,14.522,0,0,0-.8,4.781h0a5.741,5.741,0,0,0,5.741,5.741h52.38a3.916,3.916,0,0,0,3.916-3.916v-2.181s2.591-6.554-2.744-14.633c0,0-6.63,6.326-16.538-3.582l-2.922-5.293L124.622,349.12,112.9,350.563c-2.565.316-4.838-.049-6.158,2.173h0Z" transform="translate(-105.937 -287.878)" fill="#2f2e41"/>
  </g>
  <path id="Tracé_104" data-name="Tracé 104" d="M98.362,139.051l-.342-22.812,14.069-8.77,15.3,18.713Z" transform="translate(304.849 59.671)" fill="#ffd4d4"/>
  <path id="Tracé_105" data-name="Tracé 105" d="M108.766,139.051l-.91-22.243,14.636-9.339L117.519,135Z" transform="translate(294.445 59.671)" fill="#ffd4d4" opacity="0.1"/>
  <ellipse id="Ellipse_63" data-name="Ellipse 63" cx="25.019" cy="25.019" rx="25.019" ry="25.019" transform="translate(378.148 132.972)" fill="#ffd4d4"/>
  <path id="Tracé_106" data-name="Tracé 106" d="M99.669,238.282l23.307,158.6h29.241l-3.888-90.532-2.046-47.6,5.935-22.659a101.19,101.19,0,0,0,4.985-11.142c2.569-6.89,4.6-15.149,1.586-19.066-1.108-1.444-3.991-2.513-7.907-3.308a81.833,81.833,0,0,0-8.186-1.165c-17.292-1.711-41.889-.642-41.889-.642l-.625,20.635-.347,11.523-.165,5.36Z" transform="translate(269.377 111.29)" fill="#2f2e41"/>
  <g id="Groupe_74" data-name="Groupe 74" transform="translate(388.162 466.075)">
    <path id="Tracé_107" data-name="Tracé 107" d="M123.479,364.226l-16.734,2.459-17.45-63.376,24.7-3.628Z" transform="translate(-65.837 -299.68)" fill="#ffd4d4"/>
    <path id="Tracé_108" data-name="Tracé 108" d="M86.851,355.125h0a14.523,14.523,0,0,0-.1,4.847h0a5.741,5.741,0,0,0,6.515,4.845l51.823-7.619a3.916,3.916,0,0,0,3.3-4.444l-.317-2.158s1.61-6.862-4.843-14.078c0,0-5.64,7.223-16.883-1.138l-3.66-4.811-18.674,18.379L92.627,352.08c-2.491.685-4.794.655-5.776,3.045h0Z" transform="translate(-86.597 -282.53)" fill="#2f2e41"/>
  </g>
  <path id="Tracé_109" data-name="Tracé 109" d="M88.568,213.239l3.2,27.53L109.2,298.782l28.7,95.51,28.927-4.251-25.962-135.8,2.571-23.286s.837-2.315,1.8-5.7c1.9-6.7,4.294-17.621,1.666-23.19a6.51,6.51,0,0,0-1.352-1.946c-1.034-1-3.135-1.611-5.95-1.934-11.766-1.33-36,2.474-46.78,4.341l-4.245,10.718Z" transform="translate(280.111 109.885)" fill="#2f2e41"/>
  <path id="Tracé_110" data-name="Tracé 110" d="M154.373,116.4l-28.423,13.643s-30.128,89.247-30.128,93.795-8.527,7.39-3.411,12.506-9.522,9.449-1.635,13.535,57.092,26.44,62.564,24.424c15.09-5.56-.639-25.988-.639-25.988s11.335-9.129,9.63-13.676,10.232-91.521,10.232-91.521L154.373,116.4Z" transform="translate(274.645 64.629)" fill="#3f3d56"/>
  <path id="Tracé_111" data-name="Tracé 111" d="M130.628,117.837l-3.218,6.436s-3.218-11.585-8.367-14.159-5.792-6.436-5.792-6.436-6.436,8.367-10.941,6.436-6.436-3.218-1.287-10.941,3.862-3.862,3.862-3.862,4.505-6.436,3.862-4.505,3.862-5.149,3.862-3.218,3.218-3.862,3.218-1.931,13.516-4.505,11.585-1.931S139,78.578,145.431,88.875s15.36,8.393,12.185,14.816-1.888,23.8-1.888,23.8h-8.876s-9.145-17.377-16.224-9.654Z" transform="translate(274.068 46.146)" fill="#2f2e41"/>
  <path id="Tracé_114" data-name="Tracé 114" d="M336.03,15.22l-29.253-.884c-2.032-.061-2.227-3.239-.176-3.177l29.253.884c2.032.061,2.227,3.239.176,3.177Z" transform="translate(-227.387 6.195)" fill="#c2fbff"/>
  <path id="Tracé_115" data-name="Tracé 115" d="M336.03,22.084,306.778,21.2c-2.032-.061-2.227-3.239-.176-3.177l29.253.884c2.032.061,2.227,3.239.176,3.177Z" transform="translate(-227.387 10.006)" fill="#c2fbff"/>
  <path id="Tracé_116" data-name="Tracé 116" d="M336.03,28.947l-29.253-.884c-2.032-.061-2.227-3.239-.176-3.177l29.253.884c2.032.061,2.227,3.239.176,3.177Z" transform="translate(-227.387 13.817)" fill="#c2fbff"/>
  <path id="Tracé_117" data-name="Tracé 117" d="M295.834,19.178c-4.848-5.9-13.62.021-19.325,1.021a12.432,12.432,0,0,1-9.6-1.747,11.568,11.568,0,0,1-4.759-7.541c-.312-2.016,2.773-2.885,3.088-.851a8.536,8.536,0,0,0,4.909,6.581c3.25,1.441,6.979.28,10.141-.821,5.638-1.962,13.254-4.454,17.808,1.093,1.3,1.581-.955,3.859-2.265,2.265h0Z" transform="translate(-121.484 4.942)" fill="#d9dbf1"/>
  <path id="Tracé_118" data-name="Tracé 118" d="M295.834,27.415c-4.848-5.9-13.62.021-19.325,1.021a12.432,12.432,0,0,1-9.6-1.747,11.568,11.568,0,0,1-4.759-7.541c-.312-2.016,2.773-2.885,3.088-.851a8.536,8.536,0,0,0,4.909,6.581c3.25,1.441,6.979.28,10.141-.821,5.638-1.962,13.254-4.454,17.808,1.093,1.3,1.581-.955,3.859-2.265,2.265h0Z" transform="translate(-121.484 9.516)" fill="#d9dbf1"/>
  <path id="Tracé_119" data-name="Tracé 119" d="M164.881,237.175h73.783a8.864,8.864,0,0,0,8.854-8.855V123.165a8.864,8.864,0,0,0-8.854-8.855H164.881a8.864,8.864,0,0,0-8.854,8.855V228.32a8.864,8.864,0,0,0,8.854,8.855Z" transform="translate(94.503 63.47)" fill="#c2fbff"/>
  <path id="Tracé_120" data-name="Tracé 120" d="M356.923,9.454a241.361,241.361,0,0,0-1.441,39.334c.093,2.034-3.066,2.576-3.16.518a246.5,246.5,0,0,1,1.417-40.193c.241-2.043,3.428-1.713,3.185.341h0Z" transform="translate(-319.794 4.296)" fill="#ffd4d4"/>
  <path id="Tracé_121" data-name="Tracé 121" d="M363.788,9.454a241.355,241.355,0,0,0-1.441,39.334c.093,2.034-3.066,2.576-3.16.518A246.51,246.51,0,0,1,360.6,9.113c.241-2.043,3.428-1.713,3.185.341h0Z" transform="translate(-337.333 4.296)" fill="#ffd4d4"/>
  <path id="Tracé_122" data-name="Tracé 122" d="M370.651,9.454a241.358,241.358,0,0,0-1.441,39.334c.093,2.034-3.066,2.576-3.16.518a246.5,246.5,0,0,1,1.417-40.193c.241-2.043,3.428-1.713,3.185.341h0Z" transform="translate(-354.872 4.296)" fill="#ffd4d4"/>
  <g id="Groupe_75" data-name="Groupe 75" transform="translate(327.013 199.997)">
    <path id="uuid-264cfc9b-ec7b-45c7-b901-d09aac5ec40c" d="M147.033,167.26c-7.054-2.084-13.847-.134-15.172,4.356s3.318,9.817,10.375,11.9a18.408,18.408,0,0,0,8.677.543l30,8.452,3.666-14.162-29.963-6.829a18.409,18.409,0,0,0-7.582-4.26Z" transform="translate(-131.634 -107.591)" fill="#ffd4d4"/>
    <path id="Tracé_123" data-name="Tracé 123" d="M143.686,138.074l4.7,56.25-42.117.453L98.1,207.363s51.048,29.558,66.376,14.455,22.149-78.658,8.52-89.537-29.308,5.793-29.308,5.793Z" transform="translate(-75.228 -128.596)" fill="#3f3d56"/>
  </g>
  <path id="Tracé_124" data-name="Tracé 124" d="M225.8,142.946,168.12,141.2c-4.006-.121-4.39-6.387-.348-6.265l57.678,1.744c4.006.121,4.39,6.387.348,6.265Z" transform="translate(99.537 74.922)" fill="#efffd4"/>
  <path id="Tracé_125" data-name="Tracé 125" d="M225.8,156.395l-57.678-1.744c-4.006-.121-4.39-6.387-.348-6.265l57.678,1.744c4.006.121,4.39,6.387.348,6.265Z" transform="translate(99.537 82.389)" fill="#efffd4"/>
  <path id="Tracé_126" data-name="Tracé 126" d="M225.8,169.843,168.12,168.1c-4.006-.121-4.39-6.387-.348-6.265l57.678,1.744c4.006.121,4.39,6.387.348,6.265Z" transform="translate(99.537 89.856)" fill="#efffd4"/>
</svg>
