<svg xmlns="http://www.w3.org/2000/svg" width="664" height="550.618" viewBox="0 0 664 550.618">
  <g id="landing-section" transform="translate(-997.5 -256)">
    <line id="Ligne_2" data-name="Ligne 2" x1="660" transform="translate(999.5 562.5)" fill="none" stroke="#c2fbff" stroke-linecap="round" stroke-width="4"/>
    <g id="Groupe_20" data-name="Groupe 20" transform="translate(1044.41 256)">
      <circle id="Ellipse_1" data-name="Ellipse 1" cx="46.021" cy="46.021" r="46.021" transform="translate(200.757 86.606)" fill="#d9dbf1"/>
      <g id="Groupe_18" data-name="Groupe 18" transform="translate(217.075)">
        <g id="Groupe_17" data-name="Groupe 17">
          <path id="Tracé_12" data-name="Tracé 12" d="M466.985,81.606l3.826,48.951,55.457-23.164L494.985,57.606Z" transform="translate(-291.485 0)" fill="#ffd4d4"/>
          <circle id="Ellipse_2" data-name="Ellipse 2" cx="41.339" cy="41.339" r="41.339" transform="translate(132.499 13.842)" fill="#ffd4d4"/>
          <path id="Tracé_13" data-name="Tracé 13" d="M387.985,440.606l7,62.787-49-6.787,16-58Z" transform="translate(-291.485 0)" fill="#ffd4d4"/>
          <path id="Tracé_14" data-name="Tracé 14" d="M578.985,449.606l7,62.787-49-6.787,16-58Z" transform="translate(-291.485 0)" fill="#ffd4d4"/>
          <path id="Tracé_15" data-name="Tracé 15" d="M462.485,260.106c-.669,0-54.146,2.685-89.477,4.463a29.739,29.739,0,0,0-28.155,32.009l12.632,162.528,36,1,.878-131,71.122,4-3-73Z" transform="translate(-291.485 0)" fill="#2f2e41"/>
          <path id="Tracé_16" data-name="Tracé 16" d="M619.485,259.106s9,69,2,76-226.5-5.5-226.5-5.5,48.154-69.537,56.827-71.518,146.673-8.981,146.673-8.981l21,10Z" transform="translate(-291.485 0)" fill="#2f2e41"/>
          <path id="uuid-395a52e4-5c72-4314-a9bf-6720c6920e4c" d="M335.127,172.233c-8.359-11.691-9.1-25.48-1.662-30.8s20.247-.152,28.607,11.544a35.967,35.967,0,0,1,6.551,15.673l34.792,49.981-19.8,13.708-35.775-48.834a35.97,35.97,0,0,1-12.714-11.273Z" transform="translate(-291.485 0)" fill="#ffd4d4"/>
          <path id="uuid-2bcb0f29-4cb0-4836-b3e1-c42200070018" d="M465.674,331.017c-12.747,6.638-26.5,5.441-30.727-2.672s2.688-20.068,15.44-26.706a35.967,35.967,0,0,1,16.436-4.289l54.365-27.441,10.8,21.526-53.367,28.575a35.969,35.969,0,0,1-12.944,11.008Z" transform="translate(-291.485 0)" fill="#ffd4d4"/>
          <path id="Tracé_17" data-name="Tracé 17" d="M464.985,112.606l51-21,96,148s-67,15-90,18-49-9-49-9l-8-136Z" transform="translate(-291.485 0)" fill="#c2fbff"/>
          <path id="Tracé_18" data-name="Tracé 18" d="M526.985,137.606,508.485,79.9l24,18.209s68,45,68,64,21,77,21,77,23.5,19.5,15.5,37.5,10.5,15.5,12.5,28.5-28.5,30.5-28.5,30.5-7.5-73.5-31.5-73.5-62.5-124.5-62.5-124.5Z" transform="translate(-291.485 0)" fill="#3f3d56"/>
          <path id="Tracé_19" data-name="Tracé 19" d="M468.568,111.13l-25.084,9.976s4,70,8,76,18,38,18,38v10.429s-28,8.571-27,13.571,66,19,66,19-13-40-21-53S468.568,111.13,468.568,111.13Z" transform="translate(-291.485 0)" fill="#3f3d56"/>
          <path id="Tracé_20" data-name="Tracé 20" d="M527.485,97.106s56-3,68,27,22,128,22,128l-122,66.374-21-32.374,82-64-29-125Z" transform="translate(-291.485 0)" fill="#3f3d56"/>
          <path id="Tracé_21" data-name="Tracé 21" d="M452.485,121.106s-29-4-34,30-1.823,38.5-1.823,38.5l-8.177,19.5-27-30-26,17s47,76,66,74,47-57,47-57l-16-92Z" transform="translate(-291.485 0)" fill="#3f3d56"/>
          <path id="Tracé_22" data-name="Tracé 22" d="M597.323,270.145,582.484,480.106l-38.5-1.5s-8.5-198.5-8.5-201.5,4-20,29-21,32.839,14.039,32.839,14.039Z" transform="translate(-291.485 0)" fill="#2f2e41"/>
          <path id="Tracé_23" data-name="Tracé 23" d="M541.485,484.106s20-6,23-2,20,6,20,6l5,49s-14,10-16,12-55,4-56-8,14-27,14-27l10-30Z" transform="translate(-291.485 0)" fill="#2f2e41"/>
          <path id="Tracé_24" data-name="Tracé 24" d="M394.485,470.106s6-5,8,9,9,37-1,40-110,4-110-5v-9l9-7,18-2.869s35-32.131,39-32.131,17,13,17,13l20-6Z" transform="translate(-291.485 0)" fill="#2f2e41"/>
          <path id="Tracé_25" data-name="Tracé 25" d="M505.985,77.606s-20-24-28-22-3,5-3,5l-20-22s-16-6-31,13c0,0-9-16,0-25s12-8,14-13,16-9,16-9-.8-7.2,3.6-3.6,15.394,3.6,15.394,3.6.063-4,4.535,0a9.515,9.515,0,0,0,9.472,2s0,6.921,3.5,6.961,9.5-4.961,10.5-.961,8,6,9,18S505.985,77.606,505.985,77.606Z" transform="translate(-291.485 0)" fill="#2f2e41"/>
        </g>
      </g>
      <g id="Groupe_19" data-name="Groupe 19" transform="translate(0 29.606)">
        <rect id="Rectangle_6" data-name="Rectangle 6" width="197.887" height="35.069" rx="17.534" transform="translate(36.321 77.608)" fill="#3f3d56"/>
        <rect id="Rectangle_7" data-name="Rectangle 7" width="159.896" height="175.343" transform="translate(56.987 1)" fill="#efffd4"/>
        <path id="Tracé_26" data-name="Tracé 26" d="M286.293,206.949H124.4V29.606h161.9Zm-159.9-2h157.9V31.606H126.4Z" transform="translate(-68.41 -29.606)" fill="#3f3d56"/>
        <rect id="Rectangle_8" data-name="Rectangle 8" width="227.111" height="46.758" rx="23.379" transform="translate(23.379 103.075)" fill="#3f3d56"/>
        <ellipse id="Ellipse_3" data-name="Ellipse 3" cx="4.175" cy="13.986" rx="4.175" ry="13.986" transform="translate(259.675 113.929)" fill="#3f3d56"/>
        <ellipse id="Ellipse_4" data-name="Ellipse 4" cx="5.01" cy="13.568" rx="5.01" ry="13.568" transform="translate(0 113.095)" fill="#3f3d56"/>
        <rect id="Rectangle_9" data-name="Rectangle 9" width="28.806" height="2.922" transform="translate(6.262 124.784)" fill="#3f3d56"/>
        <rect id="Rectangle_10" data-name="Rectangle 10" width="23.379" height="4.175" transform="translate(237.966 126.036)" fill="#3f3d56"/>
        <path id="Tracé_27" data-name="Tracé 27" d="M302.334,337.957h-172.9a24.818,24.818,0,0,1-24.79-24.79V189.326a24.818,24.818,0,0,1,24.79-24.79h172.9a24.818,24.818,0,0,1,24.789,24.79V313.167a24.818,24.818,0,0,1-24.789,24.79Z" transform="translate(-68.41 -29.606)" fill="#3f3d56"/>
        <circle id="Ellipse_5" data-name="Ellipse 5" cx="5.427" cy="5.427" r="5.427" transform="translate(49.681 223.31)" fill="#efffd4"/>
        <circle id="Ellipse_6" data-name="Ellipse 6" cx="5.427" cy="5.427" r="5.427" transform="translate(57.196 240.845)" fill="#efffd4"/>
        <circle id="Ellipse_7" data-name="Ellipse 7" cx="5.427" cy="5.427" r="5.427" transform="translate(62.623 256.709)" fill="#efffd4"/>
        <circle id="Ellipse_8" data-name="Ellipse 8" cx="5.427" cy="5.427" r="5.427" transform="translate(72.225 272.991)" fill="#efffd4"/>
        <circle id="Ellipse_9" data-name="Ellipse 9" cx="5.427" cy="5.427" r="5.427" transform="translate(88.089 272.991)" fill="#efffd4"/>
        <circle id="Ellipse_10" data-name="Ellipse 10" cx="5.427" cy="5.427" r="5.427" transform="translate(103.954 272.991)" fill="#efffd4"/>
        <circle id="Ellipse_11" data-name="Ellipse 11" cx="5.427" cy="5.427" r="5.427" transform="translate(119.818 272.991)" fill="#efffd4"/>
        <circle id="Ellipse_12" data-name="Ellipse 12" cx="5.427" cy="5.427" r="5.427" transform="translate(135.683 272.991)" fill="#efffd4"/>
        <circle id="Ellipse_13" data-name="Ellipse 13" cx="5.427" cy="5.427" r="5.427" transform="translate(151.547 272.991)" fill="#efffd4"/>
        <circle id="Ellipse_14" data-name="Ellipse 14" cx="5.427" cy="5.427" r="5.427" transform="translate(167.411 272.991)" fill="#efffd4"/>
        <circle id="Ellipse_15" data-name="Ellipse 15" cx="5.427" cy="5.427" r="5.427" transform="translate(183.276 272.991)" fill="#efffd4"/>
        <circle id="Ellipse_16" data-name="Ellipse 16" cx="5.427" cy="5.427" r="5.427" transform="translate(199.14 272.991)" fill="#efffd4"/>
        <circle id="Ellipse_17" data-name="Ellipse 17" cx="5.427" cy="5.427" r="5.427" transform="translate(215.004 272.991)" fill="#efffd4"/>
        <circle id="Ellipse_18" data-name="Ellipse 18" cx="5.427" cy="5.427" r="5.427" transform="translate(78.78 256.709)" fill="#efffd4"/>
        <circle id="Ellipse_19" data-name="Ellipse 19" cx="5.427" cy="5.427" r="5.427" transform="translate(94.936 256.709)" fill="#efffd4"/>
        <circle id="Ellipse_20" data-name="Ellipse 20" cx="5.427" cy="5.427" r="5.427" transform="translate(111.093 256.709)" fill="#efffd4"/>
        <circle id="Ellipse_21" data-name="Ellipse 21" cx="5.427" cy="5.427" r="5.427" transform="translate(127.249 256.709)" fill="#efffd4"/>
        <circle id="Ellipse_22" data-name="Ellipse 22" cx="5.427" cy="5.427" r="5.427" transform="translate(143.406 256.709)" fill="#efffd4"/>
        <circle id="Ellipse_23" data-name="Ellipse 23" cx="5.427" cy="5.427" r="5.427" transform="translate(159.563 256.709)" fill="#efffd4"/>
        <circle id="Ellipse_24" data-name="Ellipse 24" cx="5.427" cy="5.427" r="5.427" transform="translate(175.719 256.709)" fill="#efffd4"/>
        <circle id="Ellipse_25" data-name="Ellipse 25" cx="5.427" cy="5.427" r="5.427" transform="translate(191.876 256.709)" fill="#efffd4"/>
        <circle id="Ellipse_26" data-name="Ellipse 26" cx="5.427" cy="5.427" r="5.427" transform="translate(208.032 256.709)" fill="#efffd4"/>
        <circle id="Ellipse_27" data-name="Ellipse 27" cx="5.427" cy="5.427" r="5.427" transform="translate(224.189 256.709)" fill="#efffd4"/>
        <circle id="Ellipse_28" data-name="Ellipse 28" cx="5.427" cy="5.427" r="5.427" transform="translate(73.477 240.845)" fill="#efffd4"/>
        <circle id="Ellipse_29" data-name="Ellipse 29" cx="5.427" cy="5.427" r="5.427" transform="translate(89.759 240.845)" fill="#efffd4"/>
        <circle id="Ellipse_30" data-name="Ellipse 30" cx="5.427" cy="5.427" r="5.427" transform="translate(106.041 240.845)" fill="#efffd4"/>
        <circle id="Ellipse_31" data-name="Ellipse 31" cx="5.427" cy="5.427" r="5.427" transform="translate(122.323 240.845)" fill="#efffd4"/>
        <circle id="Ellipse_32" data-name="Ellipse 32" cx="5.427" cy="5.427" r="5.427" transform="translate(138.605 240.845)" fill="#efffd4"/>
        <circle id="Ellipse_33" data-name="Ellipse 33" cx="5.427" cy="5.427" r="5.427" transform="translate(154.887 240.845)" fill="#efffd4"/>
        <circle id="Ellipse_34" data-name="Ellipse 34" cx="5.427" cy="5.427" r="5.427" transform="translate(171.169 240.845)" fill="#efffd4"/>
        <circle id="Ellipse_35" data-name="Ellipse 35" cx="5.427" cy="5.427" r="5.427" transform="translate(187.45 240.845)" fill="#efffd4"/>
        <circle id="Ellipse_36" data-name="Ellipse 36" cx="5.427" cy="5.427" r="5.427" transform="translate(203.732 240.845)" fill="#efffd4"/>
        <circle id="Ellipse_37" data-name="Ellipse 37" cx="5.427" cy="5.427" r="5.427" transform="translate(220.014 240.845)" fill="#efffd4"/>
        <circle id="Ellipse_38" data-name="Ellipse 38" cx="5.427" cy="5.427" r="5.427" transform="translate(236.296 240.845)" fill="#efffd4"/>
        <circle id="Ellipse_39" data-name="Ellipse 39" cx="5.427" cy="5.427" r="5.427" transform="translate(65.963 223.31)" fill="#efffd4"/>
        <circle id="Ellipse_40" data-name="Ellipse 40" cx="5.427" cy="5.427" r="5.427" transform="translate(82.245 223.31)" fill="#efffd4"/>
        <circle id="Ellipse_41" data-name="Ellipse 41" cx="5.427" cy="5.427" r="5.427" transform="translate(98.526 223.31)" fill="#efffd4"/>
        <circle id="Ellipse_42" data-name="Ellipse 42" cx="5.427" cy="5.427" r="5.427" transform="translate(114.808 223.31)" fill="#efffd4"/>
        <circle id="Ellipse_43" data-name="Ellipse 43" cx="5.427" cy="5.427" r="5.427" transform="translate(131.09 223.31)" fill="#efffd4"/>
        <circle id="Ellipse_44" data-name="Ellipse 44" cx="5.427" cy="5.427" r="5.427" transform="translate(147.372 223.31)" fill="#efffd4"/>
        <circle id="Ellipse_45" data-name="Ellipse 45" cx="5.427" cy="5.427" r="5.427" transform="translate(163.654 223.31)" fill="#efffd4"/>
        <circle id="Ellipse_46" data-name="Ellipse 46" cx="5.427" cy="5.427" r="5.427" transform="translate(179.936 223.31)" fill="#efffd4"/>
        <circle id="Ellipse_47" data-name="Ellipse 47" cx="5.427" cy="5.427" r="5.427" transform="translate(196.218 223.31)" fill="#efffd4"/>
        <circle id="Ellipse_48" data-name="Ellipse 48" cx="5.427" cy="5.427" r="5.427" transform="translate(212.499 223.31)" fill="#efffd4"/>
        <circle id="Ellipse_49" data-name="Ellipse 49" cx="5.427" cy="5.427" r="5.427" transform="translate(228.781 223.31)" fill="#efffd4"/>
        <circle id="Ellipse_50" data-name="Ellipse 50" cx="21.292" cy="21.292" r="21.292" transform="translate(38.408 136.891)" fill="#ffd4d4"/>
        <circle id="Ellipse_51" data-name="Ellipse 51" cx="21.292" cy="21.292" r="21.292" transform="translate(211.246 136.891)" fill="#ffd4d4"/>
        <path id="Tracé_28" data-name="Tracé 28" d="M180.522,179.439h65.7a7.648,7.648,0,0,1,6.9,4.347l17.731,37.06a7.648,7.648,0,0,1-6.9,10.948H167.815a7.648,7.648,0,0,1-7.234-10.128l12.707-37.06a7.648,7.648,0,0,1,7.234-5.167Z" transform="translate(-68.41 -29.606)" fill="#ffd4d4"/>
      </g>
      <rect id="Rectangle_11" data-name="Rectangle 11" width="96.417" height="2" transform="translate(87.158 56.606)" fill="#3f3d56"/>
      <rect id="Rectangle_12" data-name="Rectangle 12" width="96.417" height="2" transform="translate(87.158 74.606)" fill="#3f3d56"/>
      <rect id="Rectangle_13" data-name="Rectangle 13" width="96.417" height="2" transform="translate(87.158 92.606)" fill="#3f3d56"/>
    </g>
  </g>
</svg>
