<svg xmlns="http://www.w3.org/2000/svg" width="660.411" height="438.888" viewBox="0 0 660.411 438.888">
  <g id="login" transform="translate(0 0)">
    <path id="Tracé_29" data-name="Tracé 29" d="M453.764,467.1c22.632-39.813,65.8-70.382,111.5-67.437a211,211,0,0,0-55.493,133.815c-.75,19.192.413,40.616-12.33,54.987-7.929,8.942-20.048,13.273-31.964,14.181s-23.83-1.245-35.587-3.389l-2.852.875C425.956,554.35,431.132,506.913,453.764,467.1Z" transform="translate(-216.875 -214.516)" fill="#efffd4"/>
    <path id="Tracé_30" data-name="Tracé 30" d="M565.327,400.244c-33.795,16.269-62.612,43.44-80.3,76.577-3.824,7.164-7.081,14.764-8.5,22.8a44.544,44.544,0,0,0,2.318,23.328c2.51,6.981,5.887,13.83,6.656,21.3.811,7.873-2.085,15.235-7.3,21.077-6.38,7.148-14.948,11.578-23.478,15.619-9.47,4.486-19.378,9-26.086,17.37-.813,1.015-2.339-.306-1.528-1.319,11.67-14.568,31.647-17.306,45.5-29.042,6.464-5.476,11.317-12.933,11.01-21.67-.268-7.641-3.743-14.707-6.346-21.753-2.733-7.4-4.1-14.838-3.116-22.726,1-8.069,3.968-15.813,7.593-23.043a174.967,174.967,0,0,1,32.176-44.219,183.547,183.547,0,0,1,50.75-36.21c1.167-.562,1.813,1.352.654,1.91Z" transform="translate(-216.865 -214.139)" fill="#fff"/>
    <path id="Tracé_31" data-name="Tracé 31" d="M513.214,480.233a27.058,27.058,0,0,1-8.165-34.073c.591-1.156,2.416-.292,1.824.866a25.055,25.055,0,0,0,7.66,31.679c1.052.762-.273,2.285-1.319,1.528Z" transform="translate(-239.871 -228.625)" fill="#fff"/>
    <path id="Tracé_32" data-name="Tracé 32" d="M498.829,564.568a52.152,52.152,0,0,0,33.02-18.822c.816-1.012,2.343.309,1.528,1.319a54.245,54.245,0,0,1-34.4,19.515c-1.288.184-1.429-1.83-.148-2.013Z" transform="translate(-238.591 -259.129)" fill="#fff"/>
    <path id="Tracé_33" data-name="Tracé 33" d="M574.178,432.578a15.316,15.316,0,0,0,13.689,4.88c1.285-.2,1.425,1.814.148,2.013a17.163,17.163,0,0,1-15.156-5.366,1.043,1.043,0,0,1-.1-1.423,1.014,1.014,0,0,1,1.423-.1Z" transform="translate(-261.395 -224.566)" fill="#fff"/>
    <path id="Tracé_34" data-name="Tracé 34" d="M655.423,569.606c-.8.148-1.6.3-2.4.46a201.7,201.7,0,0,0-31.537,8.718c-.8.278-1.6.571-2.39.871a212.641,212.641,0,0,0-66.878,40.7,206.5,206.5,0,0,0-21.661,22.7c-9.162,11.193-18.2,24.059-30.176,31.357a35.432,35.432,0,0,1-3.855,2.09l-68.967-28.606c-.124-.144-.255-.272-.38-.416l-2.806-1.016c.313-.442.647-.894.96-1.335.18-.257.376-.508.557-.765.125-.169.251-.339.354-.5.041-.057.084-.113.119-.154.1-.16.216-.3.313-.442q2.791-3.794,5.645-7.562c.007-.016.007-.016.028-.025,14.545-19.1,30.813-37.161,49.3-52.175.556-.451,1.119-.919,1.707-1.358a197.054,197.054,0,0,1,26.635-18.017,174.22,174.22,0,0,1,15.8-7.813,144.859,144.859,0,0,1,43.888-11.193c30.153-2.8,60.866,4.075,83.992,23.017C654.261,568.627,654.838,569.106,655.423,569.606Z" transform="translate(-216.099 -258.866)" fill="#efffd4"/>
    <path id="Tracé_35" data-name="Tracé 35" d="M655.327,579.411c-36.779-7.357-76.145-3.012-110.221,12.8-7.367,3.418-14.543,7.526-20.515,13.087A44.544,44.544,0,0,0,512.4,625.316c-2.2,7.085-3.627,14.587-7.509,21.014-4.092,6.775-10.837,10.909-18.519,12.434-9.4,1.866-18.906.245-28.149-1.664-10.263-2.12-20.889-4.484-31.286-1.837-1.26.321-1.684-1.653-.426-1.973,18.089-4.605,35.688,5.235,53.814,4.206,8.458-.48,16.822-3.513,21.838-10.674,4.386-6.262,5.866-14,8.03-21.19,2.272-7.553,5.663-14.313,11.195-20.021,5.659-5.839,12.689-10.236,19.936-13.827a174.971,174.971,0,0,1,52.313-15.934,183.547,183.547,0,0,1,62.321,1.643c1.271.254.634,2.171-.628,1.919Z" transform="translate(-216.521 -267.86)" fill="#fff"/>
    <path id="Tracé_36" data-name="Tracé 36" d="M612.72,577.814a27.058,27.058,0,0,1,13.995-32.121c1.168-.567,2.1,1.221.935,1.789a25.055,25.055,0,0,0-12.957,29.906C615.075,578.63,613.1,579.049,612.72,577.814Z" transform="translate(-273.33 -259.19)" fill="#fff"/>
    <path id="Tracé_37" data-name="Tracé 37" d="M550.785,642.494a52.152,52.152,0,0,0,37.7,4.853c1.261-.316,1.685,1.657.426,1.973a54.246,54.246,0,0,1-39.216-5.129C548.551,643.562,549.651,641.869,550.785,642.494Z" transform="translate(-254.267 -288.777)" fill="#fff"/>
    <path id="Tracé_38" data-name="Tracé 38" d="M695.52,575.725a15.316,15.316,0,0,0,7.992,12.139c1.147.614.046,2.306-1.094,1.7a17.163,17.163,0,0,1-8.871-13.409,1.043,1.043,0,0,1,.773-1.2A1.014,1.014,0,0,1,695.52,575.725Z" transform="translate(-298.391 -268.162)" fill="#fff"/>
    <path id="Tracé_39" data-name="Tracé 39" d="M432.329,595.792c-9.659-46.7-21.732-62.271-21.732-62.271l-4.612-3.577-5.547-4.308.027-.554-1.316-.447-.309-.24-.506-.389-.081.087-.172.178-25.1-8.532-31.843-10.816-14.745-19.166a25.5,25.5,0,0,0-20.4-9.951l-47.091.348a25.5,25.5,0,0,0-17.155,6.8L210.793,511.67,162.564,534.7l-.081-.081-.506.362-7.452,3.563.308,1.6-4.612,3.328s-12.073,14.488-21.732,57.943c-2.457,11.057-3.666,34.776-4.1,64a11.156,11.156,0,0,0,11.152,11.322H425.293a11.158,11.158,0,0,0,11.152-11.31C436.018,633.629,434.809,607.783,432.329,595.792Z" transform="translate(-124.382 -237.856)" fill="#3f3d56"/>
    <path id="Tracé_40" data-name="Tracé 40" d="M598.907,191.732a37.789,37.789,0,1,0,0,75.578H880.529a37.789,37.789,0,1,0,0-75.578Z" transform="translate(-257.908 -151.005)" fill="#c2fbff"/>
    <path id="Tracé_41" data-name="Tracé 41" d="M602.274,202.747a30.141,30.141,0,1,0,0,60.283H883.9a30.141,30.141,0,1,0,0-60.283Z" transform="translate(-261.275 -154.372)" fill="#efffd4"/>
    <circle id="ab6171fa-7d69-4734-b81c-8dff60f9761b" cx="61.694" cy="61.694" r="61.694" transform="translate(103.765 96.87)" fill="#ffd4d4"/>
    <path id="Tracé_42" data-name="Tracé 42" d="M339.625,445.2q-.4-.87-.789-1.747c.1,0,.2.018.3.02Z" transform="translate(-189.948 -227.966)" fill="#2f2e41"/>
    <path id="Tracé_43" data-name="Tracé 43" d="M260.724,263.762c3.12-2.489,6.767-4.779,10.757-4.651s8.035,3.732,7.208,7.637a63.4,63.4,0,0,1,76.3-28.609c9.915,3.5,19.639,10.5,21.917,20.761.585,2.635.71,5.524,2.355,7.664,2.074,2.7,6.043,3.308,9.311,2.359l.1-.029a2.915,2.915,0,0,1,3.522,4.115l-2.806,5.232a22.483,22.483,0,0,0,10.711-.228,2.912,2.912,0,0,1,3.093,4.532c-9.251,12.7-24.706,20.9-40.478,20.806-11.21-.068-22.535-3.932-33.444-1.354a29.051,29.051,0,0,0-19.539,40.781c-3.352-3.666-9.83-2.8-13.258.8s-4.316,8.959-3.97,13.914c.528,7.578,3.5,14.719,6.628,21.67-26.244-.826-51.067-19.236-59.422-44.136C231.313,310.019,240.107,280.209,260.724,263.762Z" transform="translate(-158.675 -164.086)" fill="#2f2e41"/>
    <path id="Tracé_44" data-name="Tracé 44" d="M87.464,495.253l17.3,94.147,10.383.9Z" transform="translate(-26.741 -151.417)" opacity="0.2"/>
    <path id="Tracé_45" data-name="Tracé 45" d="M349.815,485.026l-17.3,101.179-10.383.972Z" transform="translate(-98.486 -148.29)" opacity="0.2"/>
    <path id="Tracé_46" data-name="Tracé 46" d="M277.314,201.06a6.151,6.151,0,0,1-8.232-3.61,6.246,6.246,0,0,1,3.274-8.521c3.371-1.408,6.772.114,8.269,3.7A6.128,6.128,0,0,1,277.314,201.06Zm-6.355-19.08-2.638,1.1a2.846,2.846,0,0,1-3.614-1.326l-.13-.255c-2.838-5.119-3.164-11.341-.961-18.482,2.04-6.406,2.888-10.912,1.184-14.993-1.971-4.719-6.178-6.2-11.544-4.056-2.081.869-2.743.855-4.381,2.48a3.76,3.76,0,0,1-2.722,1.106,3.635,3.635,0,0,1-2.6-1.141,3.713,3.713,0,0,1-.026-5.066,28.836,28.836,0,0,1,9.751-6.7c11.529-4.814,17.333,2.293,19.989,8.654,2.6,6.221,1.137,11.994-1.211,19.47-1.968,6.212-1.853,10.815.382,15.392a2.833,2.833,0,0,1-1.476,3.812Z" transform="translate(-160.506 -133.069)" fill="#c2fbff"/>
    <path id="Tracé_47" data-name="Tracé 47" d="M679.88,270.933H623.848a1.35,1.35,0,0,1,0-2.7H679.88a1.35,1.35,0,0,1,0,2.7Z" transform="translate(-276.674 -174.394)" fill="#0c002a"/>
    <path id="Tracé_48" data-name="Tracé 48" d="M782.261,271.581H726.229a1.35,1.35,0,1,1,0-2.7h56.032a1.35,1.35,0,0,1,0,2.7Z" transform="translate(-307.975 -174.592)" fill="#0c002a"/>
    <path id="Tracé_49" data-name="Tracé 49" d="M884.643,272.229H828.611a1.35,1.35,0,0,1,0-2.7h56.032a1.35,1.35,0,0,1,0,2.7Z" transform="translate(-339.277 -174.79)" fill="#0c002a"/>
    <path id="Tracé_50" data-name="Tracé 50" d="M987.021,272.877H930.989a1.35,1.35,0,0,1,0-2.7h56.032a1.35,1.35,0,1,1,0,2.7Z" transform="translate(-370.578 -174.988)" fill="#0c002a"/>
    <circle id="Ellipse_52" data-name="Ellipse 52" cx="10.414" cy="10.414" r="10.414" transform="translate(364.652 63.29)" fill="#0c002a"/>
    <circle id="Ellipse_53" data-name="Ellipse 53" cx="10.414" cy="10.414" r="10.414" transform="translate(436.161 63.29)" fill="#0c002a"/>
    <circle id="Ellipse_54" data-name="Ellipse 54" cx="10.414" cy="10.414" r="10.414" transform="translate(507.671 63.29)" fill="#0c002a"/>
    <circle id="Ellipse_55" data-name="Ellipse 55" cx="10.414" cy="10.414" r="10.414" transform="translate(579.18 63.29)" fill="#0c002a"/>
  </g>
</svg>
