<svg xmlns="http://www.w3.org/2000/svg" width="493.437" height="57.27" viewBox="0 0 493.437 57.27">
  <g id="logo" transform="translate(-19.25 -42.906)">
    <g id="Groupe_84" data-name="Groupe 84">
      <path id="Tracé_128" data-name="Tracé 128" d="M49.152,1.68C45.12-.144,66.192-39.168,51.6-39.168c-6.1,0-9.36,7.44-12.816,15.168,1.44-9.936-4.176-16.848-13.728-17.088C16.08-41.328,7.632-34.176,6-25.056c-.048.48.336.72.768.72a.9.9,0,0,0,.96-.672c1.248-7.536,8.64-14.4,16.128-14.208a12.393,12.393,0,0,1,5.328,1.392c-12.384,4.7-9.6,39.6-22.32,39.7-8.688.048-6.24-15.264,3.648-16.32,1.2-.144,1.728-1.872.384-1.776C-.672-15.12-4.992,3.5,6.816,3.744c17.76.336,16.9-39.264,24.144-40.32,6.336,2.208.432,18.144-1.536,29.28-.288,1.824.624,2.64,1.776,2.64A3.45,3.45,0,0,0,34.368-7.3,85.485,85.485,0,0,1,38.5-18.336c3.36-8.4,7.1-19.152,12.672-19.152,7.92,0-14.64,39.888-2.592,40.944C49.536,3.552,49.68,1.92,49.152,1.68ZM71.184-19.632,70.848-18.1C69.072-14.784,64.176-2.256,61.3-2.16c-3.072.048,2.4-15.024,3.168-17.184.48-1.392-.624-2.112-1.92-2.112a3.257,3.257,0,0,0-3.168,1.92c-.624,2.064-1.488,4.9-2.16,7.776C56.3-6.864,54.288,0,60.48,0c2.976,0,6.1-5.52,8.448-10.464l-.72,2.736c-.576,2.16-1.152,4.464-1.824,6.72C61.2.816,56.448,6.24,55.728,11.664c-.288,2.16.24,4.512,2.5,4.512,6.336,0,10.416-8.352,13.392-17.472C77.664-3.5,80.976-6.24,84.288-12.048a.62.62,0,0,0-.528-1.008,1,1,0,0,0-.912.576c-2.832,4.752-5.568,7.344-10.7,9.264,1.968-6.624,3.216-13.2,4.08-16.656.192-1.008-.912-1.584-2.16-1.584A2.8,2.8,0,0,0,71.184-19.632ZM58.7,14.448c-1.3,0-1.44-1.776-1.3-3.024a13.853,13.853,0,0,1,7.1-9.84L65.76.912C63.408,8.3,60.912,14.448,58.7,14.448ZM111.36-8.784c2.016-4.848,2.64-12.72-3.12-12.672-2.88.048-5.952,2.688-8.256,5.712.48-1.776.816-3.408,1.392-5.184.192-.816.528-1.632.768-2.5,10.848-.72,14.64-14.352,7.728-14.448-7.1-.1-11.808,10.56-13.968,17.616-1.728,6.048-2.976,12.48-4.416,18.528C91.248-.72,92.352-.1,93.552-.1a2.817,2.817,0,0,0,2.88-1.872l2.4-9.408c1.3-2.352,5.28-8.016,7.968-7.776,3.12.24.528,8.064-.384,10.416-2.976.144-7.728,1.824-8.784,5.52-.576,1.728.432,3.216,2.784,3.168,4.032-.048,7.776-2.928,10.032-6.96,2.784-.1,5.472-.96,7.92-5.136.192-.336-.432-.768-.96-.768a.468.468,0,0,0-.432.192C115.3-9.84,113.376-8.976,111.36-8.784Zm-8.688-16.128c1.968-5.376,4.608-11.136,7.248-11.136C114.192-36.048,111.264-25.776,102.672-24.912Zm3.072,17.9c-1.008,2.064-2.928,5.328-5.376,5.28a1.014,1.014,0,0,1-.96-1.44C100.128-5.52,103.824-6.816,105.744-7.008Zm25.2-12.528-.432,1.344c-1.68,3.12-6.72,15.936-9.6,16.032-3.024.048,2.4-15.024,3.168-17.184.48-1.392-.624-2.112-1.92-2.112a3.257,3.257,0,0,0-3.168,1.92c-.624,2.064-1.488,4.9-2.16,7.776C115.968-6.864,114,0,120.24,0c2.88,0,5.808-5.28,8.208-10.272l-.48,2.448C127.44-3.552,128.016,0,131.376,0c3.792,0,8.928-8.3,11.088-12.1a.638.638,0,0,0-.576-1.008,1,1,0,0,0-.912.576c-1.824,3.12-6.672,10.8-9.168,10.8-2.352,0,2.352-12.24,4.224-17.616.48-1.392-.624-2.112-1.92-2.112A3.257,3.257,0,0,0,130.944-19.536Zm21.648-.192c1.1,0,1.152,1.008.912,2.064-.1.432.24.672.624.672a1.01,1.01,0,0,0,1.008-.768c.384-2.016.048-3.7-2.064-3.7C140.88-21.5,133.968-.144,144.72-.144c6.048,0,11.376-6.384,14.5-11.952a.638.638,0,0,0-.576-1.008,1,1,0,0,0-.912.576c-2.208,3.792-6.96,10.32-11.424,10.512C139.872-1.728,147.456-19.776,152.592-19.728ZM167.328-12.1c6.384-2.4,8.256-9.792,3.744-9.552-2.88.144-5.328,2.64-7.2,5.184.336-1.248,1.1-3.936,2.064-6.96,10.848-.72,14.64-14.352,7.728-14.448-7.488-.1-12.144,11.52-14.16,18.528-1.68,5.808-2.832,11.808-4.224,17.616C155.04-.72,156.144-.1,157.344-.1a2.817,2.817,0,0,0,2.88-1.872l2.3-9.12c1.44-2.976,4.464-8.688,8.16-8.88,2.064-.1-.768,6.144-6.192,6.816-1.3.144-1.824,2.592-.72,2.784,5.856,1.008-1.3,10.224,4.752,10.224,3.648,0,9.072-8.88,10.848-11.952a.657.657,0,0,0-.624-1.008,1.051,1.051,0,0,0-.912.576c-1.2,2.112-6.384,10.656-8.784,10.656C166.56-1.872,172.272-11.04,167.328-12.1Zm-.864-12.816c1.968-5.376,4.608-11.136,7.3-11.136C177.984-36.048,175.056-25.776,166.464-24.912Zm15.408,14.5a11.971,11.971,0,0,0,8.352-4.224c2.448-2.784,3.072-6.672-.72-6.816-10.9-.336-19.248,21.312-7.968,21.312,6.1,0,12.144-6.384,15.312-11.952.336-.576-.1-1.008-.624-1.008a1,1,0,0,0-.912.576c-2.784,4.8-8.064,10.656-13.248,10.656C180-1.872,180.288-6.1,181.872-10.416Zm.72-1.728c1.008-2.448,3.84-7.632,6.816-7.536,2.016,0,.768,2.832-.288,4.128A9.852,9.852,0,0,1,182.592-12.144Zm27.12-16.32h-4.464l1.056-3.12c.48-1.392-.528-2.016-1.728-2.016a3.387,3.387,0,0,0-3.168,1.872l-1.1,3.264c-1.68,0-3.264,0-4.9.048-1.248,0-2.16,1.728-.816,1.728,1.728-.048,3.408-.048,5.136-.048-1.056,2.88-2.064,5.76-2.928,8.592C194.4-9.888,192.288,0,197.472,0c3.792,0,8.976-8.3,11.088-12.1a.628.628,0,0,0-.576-1.008,1,1,0,0,0-.912.576c-1.152,2.016-6.144,10.416-8.5,10.368-1.728,0,.624-8.064,2.88-15.12,1.056-3.168,2.112-6.288,3.216-9.456h4.368C210.192-26.736,211.152-28.464,209.712-28.464ZM232.368,0c3.792,0,8.832-8.3,11.04-12.1a.638.638,0,0,0-.576-1.008.987.987,0,0,0-.864.576c-1.776,3.12-6.624,10.8-9.264,10.8-2.256,0,2.4-12.24,4.32-17.616.48-1.392-.624-2.112-1.968-2.112a3.3,3.3,0,0,0-3.168,1.92l-.144.48a3.375,3.375,0,0,0-3.36-2.448c-9.408-.048-16.9,20.592-8.064,20.592,3.264,0,6.384-3.792,8.736-7.44C228.384-3.84,228.864,0,232.368,0ZM230.5-14.88l-.432,1.632c-1.152,2.3-5.376,10.08-8.256,10.128-3.264,0,2.448-16.32,6.576-16.224C230.3-19.3,230.736-16.656,230.5-14.88Zm39.456-22.992C261.984-37.968,257.52-25.1,255.7-19.1l-.144-.384a3.043,3.043,0,0,0-2.88-2.016c-10.176,0-16.944,20.592-8.4,20.592,3.216,0,6.528-3.888,8.832-7.584C252.48-3.84,252.96,0,256.368,0c3.792,0,8.88-8.3,11.088-12.1.336-.576-.1-1.008-.624-1.008a1.051,1.051,0,0,0-.912.576c-1.1,1.968-6.336,10.56-8.592,10.56-2.448.048,3.984-19.3,4.7-21.456C272.832-24.144,276.816-37.776,269.952-37.872Zm-7.344,12.96c1.824-5.376,4.8-11.136,7.44-11.136C274.272-36.048,271.1-25.776,262.608-24.912Zm-16.8,21.84c-3.312.1,2.688-16.272,6.48-16.272,1.968,0,2.4,2.64,2.16,4.416a8.942,8.942,0,0,0-.336,1.632C252.912-10.944,248.592-3.12,245.808-3.072ZM286.8-12.1a.628.628,0,0,0-.576-1.008,1.051,1.051,0,0,0-.912.576c-1.3,2.208-3.792,4.848-6.192,4.9a2.137,2.137,0,0,1-1.824-.816c2.016-3.216,5.232-9.072,5.808-12.528.288-1.632-.048-3.12-1.776-3.072-4.752.1-7.536,12.24-6.048,15.792-1.056,1.536-4.128,6.048-6,6.048-3.072-.048,2.88-14.784,3.648-17.136.528-1.392-.576-2.112-1.872-2.112a3.235,3.235,0,0,0-3.12,1.92C266.064-13.44,261.792,0,268.32,0c2.448,0,5.376-3.408,7.776-6.864a3.516,3.516,0,0,0,2.592.96C281.856-6,284.976-9.12,286.8-12.1Zm-10.176,1.92c-.48-2.4,1.488-12.1,4.272-12.144.768,0,.672.864.528,1.536C280.944-17.856,278.208-12.96,276.624-10.176Zm12.672-.24a11.971,11.971,0,0,0,8.352-4.224c2.448-2.784,3.072-6.672-.72-6.816-10.9-.336-19.248,21.312-7.968,21.312,6.1,0,12.144-6.384,15.312-11.952.336-.576-.1-1.008-.624-1.008a1,1,0,0,0-.912.576c-2.784,4.8-8.064,10.656-13.248,10.656C287.424-1.872,287.712-6.1,289.3-10.416Zm.72-1.728c1.008-2.448,3.84-7.632,6.816-7.536,2.016,0,.768,2.832-.288,4.128A9.852,9.852,0,0,1,290.016-12.144Zm17.76-.384,2.208-7.392c.288-1.008-.864-1.488-2.16-1.488-1.248,0-2.688.48-3.024,1.44-2.112,7.152-3.936,14.3-4.9,18.24C299.712-.72,300.816-.1,302.016-.1a2.758,2.758,0,0,0,2.832-1.872c.144-.672.384-1.44.624-2.256A60.351,60.351,0,0,1,310.9-14.736c.864-1.248,3.072-4.416,4.512-4.416,4.032.1-7.488,19.536,1.248,19.2C320.64,0,325.392-8.4,327.5-12.1a.62.62,0,0,0-.528-1.008,1,1,0,0,0-.912.576c-1.152,1.872-5.856,10.224-7.968,10.32-3.5.1,8.352-19.584-1.344-19.3-2.832.1-5.52,3.744-7.2,6.1Zm32.736-15.936h-4.464l1.056-3.12c.48-1.392-.528-2.016-1.728-2.016a3.387,3.387,0,0,0-3.168,1.872l-1.1,3.264c-1.68,0-3.264,0-4.9.048-1.248,0-2.16,1.728-.816,1.728,1.728-.048,3.408-.048,5.136-.048-1.056,2.88-2.064,5.76-2.928,8.592C325.2-9.888,323.088,0,328.272,0c3.792,0,8.976-8.3,11.088-12.1a.628.628,0,0,0-.576-1.008,1,1,0,0,0-.912.576c-1.152,2.016-6.144,10.416-8.5,10.368-1.728,0,.624-8.064,2.88-15.12,1.056-3.168,2.112-6.288,3.216-9.456h4.368C340.992-26.736,341.952-28.464,340.512-28.464Zm11.28,8.928-.432,1.344c-1.68,3.12-6.72,15.936-9.6,16.032-3.024.048,2.4-15.024,3.168-17.184.48-1.392-.624-2.112-1.92-2.112a3.257,3.257,0,0,0-3.168,1.92c-.624,2.064-1.488,4.9-2.16,7.776C336.816-6.864,334.848,0,341.088,0c2.88,0,5.808-5.28,8.208-10.272l-.48,2.448C348.288-3.552,348.864,0,352.224,0c3.792,0,8.928-8.3,11.088-12.1a.638.638,0,0,0-.576-1.008,1,1,0,0,0-.912.576c-1.824,3.12-6.672,10.8-9.168,10.8-2.352,0,2.352-12.24,4.224-17.616.48-1.392-.624-2.112-1.92-2.112A3.257,3.257,0,0,0,351.792-19.536Zm24.864.672c1.344-2.928-8.4.144-7.776-4.128.1-.672-.288-1.008-.72-1.008a1.35,1.35,0,0,0-1.152.864c-1.3,2.832-3.648,8.16-5.184,10.752-.288.432.192.912.672.912a.724.724,0,0,0,.672-.432c1.44-2.448,2.832-5.52,4.08-8.16.624.912,2.3,1.488,3.936,1.632-1.824,4.08-7.92,18.288-1.2,18.48,4.32.1,9.456-8.592,11.52-12.1a.669.669,0,0,0-.624-1.008.987.987,0,0,0-.864.576c-1.3,2.112-6.72,10.848-9.264,10.8C367.92-1.776,375.7-16.848,376.656-18.864ZM384-10.416a11.971,11.971,0,0,0,8.352-4.224c2.448-2.784,3.072-6.672-.72-6.816-10.9-.336-19.248,21.312-7.968,21.312,6.1,0,12.144-6.384,15.312-11.952.336-.576-.1-1.008-.624-1.008a1,1,0,0,0-.912.576c-2.784,4.8-8.064,10.656-13.248,10.656C382.128-1.872,382.416-6.1,384-10.416Zm.72-1.728c1.008-2.448,3.84-7.632,6.816-7.536,2.016,0,.768,2.832-.288,4.128A9.852,9.852,0,0,1,384.72-12.144Zm23.424-5.9a.757.757,0,0,0,.768.768.9.9,0,0,0,.912-.864c.384-3.456-1.824-5.088-4.512-5.088a8.153,8.153,0,0,0-7.68,6.144c-1.584,5.568.864,7.152,2.832,11.136a9.969,9.969,0,0,0-5.376,6.1c-.912,3.456.912,5.232,3.264,5.184,2.4-.048,5.424-1.872,6.912-5.568A10.638,10.638,0,0,0,405.792-6c3.408-1.1,5.712-2.4,7.776-6.048a.638.638,0,0,0-.576-1.008,1,1,0,0,0-.912.576c-1.728,3.072-3.888,4.08-6.624,4.944-1.344-4.176-4.128-5.664-2.976-10.656.48-2.16,1.824-3.072,3.072-3.072A2.7,2.7,0,0,1,408.144-18.048ZM401.52-.1c-.432,2.064-1.824,3.12-3.072,3.168-1.152.048-2.208-.96-1.632-2.928a7.135,7.135,0,0,1,4.224-4.656A8.059,8.059,0,0,1,401.52-.1Z" transform="translate(99 84)" fill="#c2fbff"/>
      <g id="Groupe_14" data-name="Groupe 14" transform="translate(19.25 44)">
        <path id="Tracé_7" data-name="Tracé 7" d="M1.846,3.334A431.107,431.107,0,0,0,.037,48.851a2.548,2.548,0,0,0,2.5,2.5l46.169,1.675a2.511,2.511,0,0,0,2.411-1.835A202.851,202.851,0,0,0,53.547,5a2.587,2.587,0,0,0-2.5-2.5A385.116,385.116,0,0,0,4.458.01c-3.216.023-3.223,5.023,0,5A385.127,385.127,0,0,1,51.047,7.5L48.547,5A197.148,197.148,0,0,1,46.3,49.861l2.411-1.835L2.537,46.351l2.5,2.5A431.11,431.11,0,0,1,6.846,3.334a2.519,2.519,0,0,0-2.5-2.5,2.553,2.553,0,0,0-2.5,2.5Z" fill="#efffd4"/>
        <path id="Tracé_8" data-name="Tracé 8" d="M17.194,18.093l1.054-2.821-4.178,1.1c2.168,2.285,4.624,4.725,7.8,5.46a8.076,8.076,0,0,0,8.41-2.648c.146-.195.842-1.218.848-1.212l-1.066.265q-.5-.333-.01.1a6.693,6.693,0,0,0,.4.576,5.243,5.243,0,0,0,4.293,2.54c3.754,0,5.561-3.368,6.5-6.5.926-3.089-3.9-4.409-4.821-1.329-.25.834-.5,2.2-1.3,2.712-.46.291-.406-.05-.729-.5a5.466,5.466,0,0,0-3.31-2.469,4.045,4.045,0,0,0-4.073,1.79c-.534.717-.8,1.408-1.624,1.743a4.027,4.027,0,0,1-2.021.147c-2.381-.421-4.183-2.547-5.758-4.207a2.53,2.53,0,0,0-4.178,1.1l-1.054,2.821a2.521,2.521,0,0,0,1.746,3.075,2.554,2.554,0,0,0,3.075-1.746h0Z" fill="#d9dbf1"/>
        <path id="Tracé_9" data-name="Tracé 9" d="M20.068,30.36a1.665,1.665,0,0,1-.509,2.184,1.455,1.455,0,0,1-1.375.02c.452.232-.223-.313.118.09q.142.146.272.3-.24-.32-.086-.116c.235.093.478.634.678.87a4.858,4.858,0,0,0,.378.406A4.572,4.572,0,0,0,21.4,35.226c1.946.528,3.561-.439,4.907-1.75.216-.211.428-.426.652-.629q.075-.069.153-.136.3-.249-.2.143a3.267,3.267,0,0,1,.319-.206c.331-.281-.543.171-.153.064q.384-.088-.314.031.391.006-.3-.062l.166.042a.969.969,0,0,1-.526-.317,1.782,1.782,0,0,1,.184.176q.184.2-.115-.169c.259.162.482.827.617,1.091a6.788,6.788,0,0,0,.563.922,4.524,4.524,0,0,0,3.577,2.055,2.519,2.519,0,0,0,2.5-2.5,2.553,2.553,0,0,0-2.5-2.5,1.132,1.132,0,0,1,.618.195q-.341-.205.091.107a2.7,2.7,0,0,1-.246-.249q.3.411.067.072c-.233-.417-.446-.846-.683-1.261A4.924,4.924,0,0,0,27.8,27.859c-2.189-.556-3.776.9-5.232,2.275a4.244,4.244,0,0,0-.407.364q.5-.377.193-.155-.1.071-.214.133c-.313.262.565-.174.153-.063q-.384.089.313-.029-.391,0,.295.064-.4-.113.1.065-.34-.221.076.069c-.1,0-.445-.464-.5-.55q.31.4.044.055l-.391-.506a5.46,5.46,0,0,0-.544-.6,3.936,3.936,0,0,0-4.656-.753,3.368,3.368,0,0,0-1.285,4.657,2.5,2.5,0,1,0,4.317-2.524h0Z" fill="#ffd4d4"/>
      </g>
    </g>
  </g>
</svg>
